# xmcd
#
# Track frame offsets: 
#        150
#        11967
#        25244
#        38186
#        50472
#        60922
#        74218
#        85336
#        95803
#        109164
#        124796
#        136221
#        149402
#        163057
#        173814
#        184211
#        194626
#        207629
#        219325
#        229418
#        242093
#        256755
#        270112
#        280656
#
# Disc length: 3932 seconds
#
# Revision: 0
# Processed by: cddbd v1.5.2PL0 Copyright (c) Steve Scherf et al.
# Submitted via: ExactAudioCopyFreeDBPlugin 1.0
#
DISCID=6e0f5a18
DTITLE=The Louvin Brothers - Tragic Songs Of Life - Satan Is Real
DYEAR=1996
DGENRE=Country
TTITLE0=Kentucky
TTITLE1=I'll Be All Smiles Tonight
TTITLE2=Let Her Go, God Bless Her
TTITLE3=What Is Home Without Love
TTITLE4=A Tiny Broken Heart
TTITLE5=In The Pines
TTITLE6=Alabama
TTITLE7=Katie Dear
TTITLE8=My Brother's Will
TTITLE9=Knoxville Girl
TTITLE10=Take The News To Mother
TTITLE11=Mary Of The Wild Moor
TTITLE12=Satan Is Real
TTITLE13=There's A Higher Power
TTITLE14=The Christian Life
TTITLE15=The River Of Jordan
TTITLE16=The Kneeling Drunkard's Plea
TTITLE17=Are You Afraid To Die
TTITLE18=He Can Be Found
TTITLE19=Dying From Home, And Lost
TTITLE20=The Drunkard's Doom
TTITLE21=Satan's Jeweled Crown
TTITLE22=The Angels Rejoiced Last Night
TTITLE23=I'm Ready To Go Home
EXTD=
EXTT0=
EXTT1=
EXTT2=
EXTT3=
EXTT4=
EXTT5=
EXTT6=
EXTT7=
EXTT8=
EXTT9=
EXTT10=
EXTT11=
EXTT12=
EXTT13=
EXTT14=
EXTT15=
EXTT16=
EXTT17=
EXTT18=
EXTT19=
EXTT20=
EXTT21=
EXTT22=
EXTT23=
PLAYORDER=
